<svg width="256" height="256" viewBox="0 0 256 256" fill="none" xmlns="http://www.w3.org/2000/svg">
<path d="M192 0H64C28.6538 0 0 28.6538 0 64V192C0 227.346 28.6538 256 64 256H192C227.346 256 256 227.346 256 192V64C256 28.6538 227.346 0 192 0Z" fill="#0B0F17"/>
<path d="M145.7 76.9236L149.121 78.7372C150.483 79.4589 152.152 79.0917 153.12 77.8923C160.836 68.3281 168.048 66.2879 172.494 66.1485C174.775 66.0769 176.347 68.4291 175.485 70.5423L169.123 86.1384C168.505 87.6522 169.133 89.3877 170.575 90.1568L181.344 95.8976C182.296 96.4053 182.927 97.3601 183.02 98.4352L184.002 109.724C184.044 110.2 184.192 110.661 184.435 111.072L209.346 153.126C210.207 154.579 209.786 156.451 208.386 157.395L195.255 166.25C193.858 167.192 191.972 166.885 190.944 165.55C187.562 161.157 180.261 152.039 176.248 149.765C172.079 147.419 160.597 145.715 154.063 144.914C153.287 144.818 152.58 144.442 152.063 143.854L126.862 115.156C125.699 113.832 123.682 113.702 122.359 114.866L122.152 115.049C120.831 116.211 120.701 118.224 121.862 119.547L135.224 134.764C135.17 134.839 135.12 134.918 135.065 135.001C122.523 155.392 137.896 172.639 154.371 184.062C156.926 185.834 155.64 189.853 152.53 189.853H61.3976C59.5823 189.853 58.1396 188.338 58.2106 186.524C63.2108 58.6703 145.7 76.9236 145.7 76.9236Z" fill="#E4EAF8"/>
</svg>
