<svg width="569" height="124" viewBox="0 0 569 124" fill="none" xmlns="http://www.w3.org/2000/svg">
<g clip-path="url(#clip0_3_31)">
<path d="M87.6232 10.7767L91.0443 12.5903C92.4058 13.312 94.0749 12.9448 95.0425 11.7454C102.759 2.18122 109.971 0.14102 114.417 0.00159271C116.698 -0.069955 118.27 2.28224 117.408 4.39544L111.046 19.9915C110.428 21.5053 111.055 23.2408 112.498 24.0099L123.267 29.7507C124.219 30.2584 124.85 31.2132 124.943 32.2884L125.925 43.5767C125.966 44.0531 126.114 44.5141 126.358 44.9256L151.269 86.9789C152.13 88.4318 151.709 90.3037 150.309 91.2479L137.178 100.103C135.781 101.045 133.894 100.738 132.867 99.4027C129.485 95.0105 122.184 85.8923 118.171 83.6183C114.002 81.2717 102.52 79.5682 95.9861 78.7668C95.2096 78.6715 94.5025 78.2951 93.9862 77.7072L68.7845 49.0092C67.6215 47.6849 65.6048 47.5551 64.2817 48.7194L64.0746 48.9018C62.7535 50.0643 62.6239 52.0773 63.785 53.3997L77.1465 68.6171C77.0924 68.692 77.0425 68.7711 76.9883 68.8544C64.4461 89.2452 79.8187 106.492 96.2935 117.915C98.8493 119.687 97.5627 123.706 94.4527 123.706H3.32048C1.50517 123.706 0.0624878 122.191 0.133429 120.377C5.13369 -7.47659 87.6232 10.7767 87.6232 10.7767Z" fill="#E4EAF8"/>
<path d="M225.715 62.2218C225.715 43.547 239.789 28.919 258.925 28.919C269.228 28.919 276.956 32.5987 282.936 38.3946L274.472 46.8585C270.792 42.9024 265.732 40.6026 258.925 40.6026C246.965 40.6026 238.502 49.3419 238.502 62.2218C238.502 75.1925 246.965 83.9327 258.925 83.9327C266.192 83.9327 271.16 81.5401 274.84 77.5851L283.304 86.0479C277.323 91.9356 269.412 95.5235 258.925 95.5235C239.882 95.5235 225.715 80.9884 225.715 62.2218Z" fill="#E4EAF8"/>
<path d="M290.758 28.0909H302.809V54.3097C305.845 51.0899 310.261 49.2501 315.412 49.2501C325.532 49.2501 332.707 56.3341 332.707 66.4532V94.6036H320.656V69.1212C320.656 63.877 316.977 60.1974 311.732 60.1974C306.581 60.1974 302.809 63.877 302.809 69.1212V94.6036H290.758V28.0909Z" fill="#E4EAF8"/>
<path d="M339.517 72.3409C339.517 59.1856 349.728 49.1583 362.884 49.1583C375.579 49.1583 384.778 58.5421 384.778 71.3292C384.778 72.8927 384.595 74.5489 384.135 76.5724L351.66 76.6651C353.132 82.1847 357.456 85.4044 363.619 85.4044C368.035 85.4044 371.899 83.8399 374.567 80.8048L381.65 87.8878C377.235 92.9483 370.888 95.5235 363.712 95.5235C349.82 95.5235 339.517 85.7725 339.517 72.3409ZM351.66 67.6495H373.187C371.991 62.13 368.495 59.1856 362.884 59.1856C357.18 59.2774 353.132 62.4054 351.66 67.6495Z" fill="#E4EAF8"/>
<path d="M388.184 87.4278L395.359 80.1602C398.394 83.5645 402.442 85.3126 407.41 85.3126C411.274 85.3126 413.391 84.2081 413.391 82.0001C413.391 74.7325 391.035 79.3331 391.035 63.0499C391.035 54.586 397.567 49.0665 408.146 49.0665C415.506 49.0665 421.67 51.7345 425.533 56.794L418.266 64.0616C415.598 60.7501 412.102 59.3692 408.238 59.3692C404.65 59.3692 402.719 60.4737 402.719 62.4972C402.719 69.0294 424.981 64.9815 424.981 81.4483C424.981 90.1886 418.266 95.6153 407.502 95.6153C399.867 95.6153 392.6 92.5802 388.184 87.4278Z" fill="#E4EAF8"/>
<path d="M429.03 87.4278L436.206 80.1602C439.241 83.5645 443.289 85.3126 448.257 85.3126C452.121 85.3126 454.236 84.2081 454.236 82.0001C454.236 74.7325 431.882 79.3331 431.882 63.0499C431.882 54.586 438.414 49.0665 448.993 49.0665C456.352 49.0665 462.517 51.7345 466.38 56.794L459.112 64.0616C456.444 60.7501 452.949 59.3692 449.085 59.3692C445.497 59.3692 443.565 60.4737 443.565 62.4972C443.565 69.0294 465.828 64.9815 465.828 81.4483C465.828 90.1886 459.112 95.6153 448.35 95.6153C440.714 95.6153 433.446 92.5802 429.03 87.4278Z" fill="#E4EAF8"/>
<path d="M475.213 29.9308H487.724V94.6036H475.213V29.9308Z" fill="#E4EAF8"/>
<path d="M497.66 62.13C497.66 43.4542 512.195 28.919 531.055 28.919C549.914 28.919 564.633 43.4542 564.633 62.2218C564.633 80.8966 550.006 95.6153 531.238 95.6153C512.38 95.6153 497.66 80.8048 497.66 62.13ZM551.754 62.13C551.754 49.3419 543.29 40.5108 531.055 40.5108C518.819 40.5108 510.448 49.3419 510.448 62.13C510.448 75.1007 518.819 83.9327 531.055 83.9327C543.382 83.9327 551.754 75.1007 551.754 62.13Z" fill="#E4EAF8"/>
</g>
<defs>
<clipPath id="clip0_3_31">
<rect width="568.079" height="123.706" fill="white"/>
</clipPath>
</defs>
</svg>
