<svg width="241" height="53" viewBox="0 0 241 53" fill="none" xmlns="http://www.w3.org/2000/svg">
<g clip-path="url(#clip0_3_77)">
<path d="M37.5187 4.35935L38.9641 5.12555C39.5393 5.43048 40.2444 5.27532 40.6532 4.76863C43.9131 0.727971 46.9602 -0.133965 48.8383 -0.19287C49.802 -0.223097 50.4661 0.770651 50.1019 1.66343L47.4141 8.2524C47.1532 8.89193 47.4183 9.62516 48.0278 9.95008L52.5772 12.3754C52.9795 12.5899 53.2461 12.9933 53.2856 13.4475L53.7003 18.2166C53.7178 18.4179 53.7804 18.6126 53.8834 18.7865L64.4077 36.553C64.7713 37.1668 64.5933 37.9577 64.0018 38.3566L58.4544 42.0977C57.8642 42.4957 57.0673 42.3658 56.633 41.8018C55.2044 39.9461 52.1198 36.0939 50.4244 35.1332C48.6631 34.1418 43.8122 33.4222 41.0519 33.0836C40.7238 33.0433 40.4251 32.8843 40.207 32.6359L29.5598 20.5117C29.0685 19.9522 28.2165 19.8974 27.6575 20.3893L27.57 20.4663C27.0119 20.9575 26.9571 21.8079 27.4476 22.3666L33.0926 28.7956C33.0697 28.8272 33.0486 28.8606 33.0258 28.8958C27.727 37.5104 34.2215 44.7968 41.1817 49.6227C42.2615 50.3713 41.718 52.0694 40.404 52.0694H1.90283C1.1359 52.0694 0.526402 51.4293 0.556373 50.663C2.66887 -3.35223 37.5187 4.35935 37.5187 4.35935Z" fill="#E4EAF8"/>
<path d="M95.8592 26.0937C95.8592 18.204 101.805 12.0241 109.89 12.0241C114.243 12.0241 117.507 13.5787 120.034 16.0273L116.458 19.6031C114.903 17.9317 112.766 16.9601 109.89 16.9601C104.837 16.9601 101.261 20.6523 101.261 26.0937C101.261 31.5735 104.837 35.2661 109.89 35.2661C112.96 35.2661 115.059 34.2552 116.613 32.5843L120.189 36.1597C117.663 38.6471 114.32 40.1629 109.89 40.1629C101.844 40.1629 95.8592 34.0221 95.8592 26.0937Z" fill="#E4EAF8"/>
<path d="M123.338 11.6742H128.429V22.751C129.712 21.3908 131.578 20.6135 133.754 20.6135C138.03 20.6135 141.061 23.6063 141.061 27.8814V39.7743H135.97V29.0085C135.97 26.793 134.415 25.2384 132.2 25.2384C130.023 25.2384 128.429 26.793 128.429 29.0085V39.7743H123.338V11.6742Z" fill="#E4EAF8"/>
<path d="M143.938 30.3688C143.938 24.811 148.252 20.5747 153.81 20.5747C159.173 20.5747 163.06 24.5391 163.06 29.9414C163.06 30.6019 162.982 31.3016 162.788 32.1565L149.068 32.1957C149.69 34.5275 151.517 35.8878 154.12 35.8878C155.986 35.8878 157.619 35.2268 158.746 33.9446L161.738 36.937C159.873 39.0749 157.191 40.1629 154.16 40.1629C148.291 40.1629 143.938 36.0433 143.938 30.3688ZM149.068 28.3868H158.163C157.657 26.0549 156.18 24.811 153.81 24.811C151.4 24.8498 149.69 26.1712 149.068 28.3868Z" fill="#E4EAF8"/>
<path d="M164.498 36.7427L167.53 33.6723C168.812 35.1105 170.522 35.849 172.621 35.849C174.254 35.849 175.148 35.3824 175.148 34.4496C175.148 31.3792 165.703 33.3228 165.703 26.4436C165.703 22.8678 168.463 20.5359 172.932 20.5359C176.041 20.5359 178.646 21.6631 180.278 23.8006L177.207 26.871C176.08 25.4719 174.604 24.8886 172.971 24.8886C171.455 24.8886 170.639 25.3552 170.639 26.21C170.639 28.9698 180.045 27.2596 180.045 34.2165C180.045 37.909 177.207 40.2017 172.66 40.2017C169.434 40.2017 166.364 38.9194 164.498 36.7427Z" fill="#E4EAF8"/>
<path d="M181.755 36.7427L184.787 33.6723C186.069 35.1105 187.779 35.849 189.878 35.849C191.51 35.849 192.404 35.3824 192.404 34.4496C192.404 31.3792 182.96 33.3228 182.96 26.4436C182.96 22.8678 185.72 20.5359 190.189 20.5359C193.298 20.5359 195.902 21.6631 197.534 23.8006L194.464 26.871C193.337 25.4719 191.86 24.8886 190.228 24.8886C188.712 24.8886 187.896 25.3552 187.896 26.21C187.896 28.9698 197.301 27.2596 197.301 34.2165C197.301 37.909 194.464 40.2017 189.917 40.2017C186.691 40.2017 183.621 38.9194 181.755 36.7427Z" fill="#E4EAF8"/>
<path d="M201.266 12.4515H206.552V39.7743H201.266V12.4515Z" fill="#E4EAF8"/>
<path d="M210.75 26.0549C210.75 18.1648 216.89 12.0241 224.858 12.0241C232.826 12.0241 239.044 18.1648 239.044 26.0937C239.044 33.9834 232.864 40.2017 224.936 40.2017C216.968 40.2017 210.75 33.9446 210.75 26.0549ZM233.603 26.0549C233.603 20.6523 230.027 16.9213 224.858 16.9213C219.689 16.9213 216.152 20.6523 216.152 26.0549C216.152 31.5347 219.689 35.2661 224.858 35.2661C230.066 35.2661 233.603 31.5347 233.603 26.0549Z" fill="#E4EAF8"/>
</g>
<defs>
<clipPath id="clip0_3_77">
<rect width="240" height="52.263" fill="white" transform="translate(0.5)"/>
</clipPath>
</defs>
</svg>
